<svg xmlns="http://www.w3.org/2000/svg" viewBox="0 0 1280 320">
<rect width="1280" height="320" fill="#10243D"></rect>
<g fill="none" stroke="#5E9BE0" stroke-width="2.2" opacity="0.22" transform="translate(850 -47.06) scale(4.2)" stroke-linejoin="round"><path d="M50 22.59L69 55.5L31 55.5Z"></path><path d="M26.96 62.5L73.04 62.5L63.5 76L36.5 76Z"></path></g>
<rect x="820" y="200.74" width="123.23" height="2" fill="#5E9BE0" opacity="0.18"></rect>
<rect x="1176.77" y="200.74" width="59.23" height="2" fill="#5E9BE0" opacity="0.18"></rect>
<g fill="#FFFFFF" transform="translate(35.66 33.55) scale(1.35)"><path d="M50 22.59L69 55.5L31 55.5Z"></path><path d="M26.96 62.5L73.04 62.5L63.5 76L36.5 76Z"></path></g>
<g fill="#FFFFFF" transform="translate(162.12 120.6) scale(0.58)"><path d="M18.6-23.9L5.4-23.1C6.5-8.3 18.3 1.2 35.1 1.2C49.6 1.2 61.5-6.1 61.5-19.5C61.5-30.7 51.3-37.4 36.5-41C28.7-43 20.4-45 20.2-52C20.1-57.6 25.1-61.3 32.2-61.3C40.4-61.3 46.1-56.2 47.1-48.4L60.3-49C58.7-63 48.2-72.6 32.4-72.6C17.1-72.6 6.8-64.7 6.8-52.1C6.8-40.6 16.9-34.6 31-31.2C43-28.1 48.1-24.8 48.1-18.9C48.2-13.2 43.1-10.2 35.6-10.2C25.9-10.2 20.2-15.6 18.6-23.9ZM69.4-36.9L82.6-36.1C83.9-41.9 87.5-44.9 93.1-44.9C100-44.9 103.4-41 103.5-33L88.6-30C76.2-27.5 68.6-24.2 68.6-13.9C68.6-4.5 77 1.2 87.6 1.2C96.8 1.2 102.8-2.8 105.2-8C106.2 0.2 114.7 0.1 118.8 0.1L121.8 0L121.8-9.4L119.8-9.4C117.8-9.4 116.5-10.2 116.5-13.3L116.5-31.4C116.5-46.3 108.4-54.2 93.1-54.2C80.1-54.2 71.5-47.8 69.4-36.9ZM81.9-14.3C81.9-20.4 87-21.1 93.7-22.4L103.7-24.2L103.7-23.6C103.7-13.1 98.3-7.9 91.1-7.9C84.9-7.9 81.9-10.7 81.9-14.3ZM129.4-53L129.4 0L142.4 0L142.4-53ZM129.2-60.4L142.6-60.4L142.6-71L129.2-71ZM153.9-71L153.9-13.3C153.9-4.9 159.3 0 167.2 0L174.7 0L174.7-10.1L170.6-10.1C168.2-10.1 166.9-11.4 166.9-13.9L166.9-71ZM243.8-24.8L230.0-25.5C228.3-15.5 222.3-9.9 213.4-9.9C199.8-9.9 193.6-21.2 193.6-35.4C193.6-49.7 199.7-61.1 213.4-61.1C221.9-61.1 227.8-56 229.7-46.8L243.4-47.5C240.3-63.1 229.6-72.6 213.6-72.6C192.7-72.6 180.1-56.3 180.1-35.4C180.1-14.6 192.8 1.6 213.6 1.6C230.4 1.6 241-8.4 243.8-24.8ZM275.6 1.2C291.4 1.2 301.8-9.7 301.8-26.5C301.8-43.3 291.4-54.2 275.6-54.2C259.8-54.2 249.4-43.3 249.4-26.5C249.4-9.7 259.8 1.2 275.6 1.2ZM262.7-26.5C262.7-37.4 267.4-43.7 275.6-43.7C283.8-43.7 288.5-37.4 288.5-26.5C288.5-15.6 283.8-9.3 275.6-9.3C267.4-9.3 262.7-15.6 262.7-26.5ZM309.7-53L309.7 0L322.7 0L322.7-30C322.7-38.7 326.3-43.7 333.1-43.7C338.6-43.7 341.4-38.9 341.4-30L341.4 0L353.2 0L353.2-30C353.2-38.9 356.8-43.7 363.6-43.7C369.2-43.7 372-39 372-30L372 0L385 0L385-34.1C385-47.2 378.3-54.2 367.5-54.2C359.9-54.2 354.4-50.5 351.8-43.3C349.5-50.2 344.1-54.2 336.6-54.2C329.6-54.2 324.3-50.7 321.7-44.5L321.4-53ZM394.8-53L394.8 0L407.8 0L407.8-30C407.8-38.7 411.4-43.7 418.2-43.7C423.7-43.7 426.5-38.9 426.5-30L426.5 0L438.3 0L438.3-30C438.3-38.9 441.9-43.7 448.7-43.7C454.3-43.7 457.1-39 457.1-30L457.1 0L470.1 0L470.1-34.1C470.1-47.2 463.4-54.2 452.6-54.2C445-54.2 439.5-50.5 436.9-43.3C434.6-50.2 429.2-54.2 421.7-54.2C414.7-54.2 409.4-50.7 406.8-44.5L406.5-53ZM479.6-36.9L492.8-36.1C494.1-41.9 497.7-44.9 503.3-44.9C510.2-44.9 513.6-41 513.7-33L498.8-30C486.4-27.5 478.8-24.2 478.8-13.9C478.8-4.5 487.2 1.2 497.8 1.2C507 1.2 513-2.8 515.4-8C516.4 0.2 524.9 0.1 529 0.1L532 0L532-9.4L530-9.4C528-9.4 526.7-10.2 526.7-13.3L526.7-31.4C526.7-46.3 518.6-54.2 503.3-54.2C490.3-54.2 481.7-47.8 479.6-36.9ZM492.1-14.3C492.1-20.4 497.2-21.1 503.9-22.4L513.9-24.2L513.9-23.6C513.9-13.1 508.5-7.9 501.3-7.9C495.1-7.9 492.1-10.7 492.1-14.3ZM539-53L539 0L552 0L552-30C552-38.8 556-43.7 563.1-43.7C569.9-43.7 572.2-38.8 572.2-30L572.2 0L585.1 0L585.1-34.1C585.1-46 578.7-54.2 567-54.2C559.9-54.2 553.9-51.4 551-44.4L550.7-53ZM643.6-71L630.6-71L630.6-45.9C627.6-51.1 621.6-54.2 614.8-54.2C601-54.2 592.4-43.5 592.4-26.5C592.4-9.5 601 1.2 614.8 1.2C622 1.2 628.1-2.1 631-7.5L631.3 0L643.6 0ZM605.7-26.5C605.7-37.3 610.7-44.1 618.6-44.1C626.4-44.1 631.5-37.3 631.5-26.5C631.5-16 626.5-9.2 618.6-9.2C610.8-9.2 605.7-16 605.7-26.5Z"></path></g>
<g fill="#82B2E8" transform="translate(162.12 162) scale(0.13)"><path d="M31.3 0L8.3 0L8.3-71L28.9-71Q40.6-71 46.7-65.9Q52.8-60.8 52.8-51.7L52.8-51.7Q52.8-47.3 50.8-43.9Q48.8-40.4 45-38.4L45-38.4Q42.6-37.1 39.7-36.6L39.7-36.6Q43.7-36.1 46.8-34.7L46.8-34.7Q51.2-32.5 53.5-28.7Q55.8-24.8 55.8-19.7L55.8-19.7Q55.8-10.3 49.4-5.2Q42.9 0 31.3 0L31.3 0ZM18.8-31.2L18.8-9.8L31.4-9.8Q38.3-9.8 41.6-12.6Q44.9-15.3 44.9-20.2L44.9-20.2Q44.9-25.4 41.5-28.3Q38-31.2 31.4-31.2L31.4-31.2L18.8-31.2ZM18.8-61.2L18.8-40.9L29.1-40.9Q35.7-40.9 38.8-43.6Q41.9-46.2 41.9-51L41.9-51Q41.9-55.9 38.8-58.6Q35.7-61.2 29.1-61.2L29.1-61.2L18.8-61.2ZM111.3 0L100.8 0L100.8-29.2L79.7-71L91.3-71L106-40L120.7-71L132.3-71L111.3-29.2L111.3 0ZM253.6 0L236.3 0L236.3-71L253.6-71Q263-71 269.9-66.9Q276.9-62.7 280.6-54.8Q284.4-46.8 284.4-35.4L284.4-35.4Q284.4-24 280.6-16.1Q276.9-8.2 269.9-4.1Q263 0 253.6 0L253.6 0ZM246.8-61.1L246.8-9.9L253.3-9.9Q263-9.9 268.3-16.3Q273.5-22.6 273.5-35.4L273.5-35.4Q273.5-48.2 268.3-54.7Q263-61.1 253.3-61.1L253.3-61.1L246.8-61.1ZM334 1.6L334 1.6Q325.5 1.6 319.6-2.7Q313.8-7 310.7-15.3Q307.6-23.6 307.6-35.4L307.6-35.4Q307.6-47.4 310.7-55.7Q313.8-64 319.6-68.3Q325.5-72.6 334-72.6L334-72.6Q342.5-72.6 348.4-68.3Q354.3-64 357.4-55.7Q360.4-47.4 360.4-35.4L360.4-35.4Q360.4-23.6 357.4-15.3Q354.3-7 348.4-2.7Q342.5 1.6 334 1.6ZM334-8.2L334-8.2Q339-8.2 342.4-11.2Q345.9-14.2 347.7-20.3Q349.5-26.4 349.5-35.4L349.5-35.4Q349.5-44.4 347.7-50.6Q345.9-56.7 342.4-59.8Q339-62.8 334-62.8L334-62.8Q329-62.8 325.6-59.8Q322.1-56.7 320.3-50.6Q318.5-44.4 318.5-35.4L318.5-35.4Q318.5-26.4 320.3-20.3Q322.1-14.2 325.6-11.2Q329-8.2 334-8.2ZM410.3 1.6L410.3 1.6Q401.7 1.6 395.8-2.9Q389.8-7.4 386.7-15.7Q383.6-24 383.6-35.4L383.6-35.4Q383.6-46.9 386.7-55.2Q389.8-63.5 395.8-68.0Q401.7-72.6 410.3-72.6L410.3-72.6Q420-72.6 426.6-66.2Q433.3-59.8 435.4-48.3L435.4-48.3L424.4-47.7Q422.9-55.1 419.1-59.0Q415.4-62.8 410.3-62.8L410.3-62.8Q405.1-62.8 401.6-59.6Q398.1-56.4 396.3-50.3Q394.5-44.2 394.5-35.4L394.5-35.4Q394.5-26.7 396.3-20.7Q398.1-14.6 401.6-11.4Q405.1-8.2 410.3-8.2L410.3-8.2Q415.8-8.2 419.7-12.4Q423.6-16.6 424.9-24.7L424.9-24.7L435.8-24.2Q434-12 427.3-5.2Q420.6 1.6 410.3 1.6ZM485.9 1.6L485.9 1.6Q478.2 1.6 472.3-2.6Q466.4-6.8 463-15.1Q459.6-23.3 459.6-35.4L459.6-35.4Q459.6-46.9 462.8-55.2Q466-63.5 471.9-68.0Q477.9-72.6 486.2-72.6L486.2-72.6Q492.9-72.6 498-69.7Q503.1-66.8 506.6-61.5Q510-56.2 511.5-49.1L511.5-49.1L500.6-48.4Q499.1-54.9 495.6-58.8Q492-62.7 486.3-62.7L486.3-62.7Q481.3-62.7 477.8-59.6Q474.2-56.4 472.4-50.3Q470.5-44.2 470.5-35.4L470.5-35.4Q470.5-26.7 472.4-20.7Q474.3-14.6 477.9-11.5Q481.6-8.3 486.8-8.3L486.8-8.3Q491.4-8.3 494.7-10.7Q498-13 499.9-17.3Q501.7-21.5 501.9-27.1L501.9-27.1L486.3-27.1L486.3-36.2L511.6-36.2L511.6 0L503.1 0L502.8-9.2Q502.3-8.2 501.8-7.2L501.8-7.2Q499.3-3.1 495.4-0.8Q491.5 1.6 485.9 1.6ZM585.2 0L540.8 0L540.8-71L584.4-71L584.4-61.1L551.3-61.1L551.3-40.4L583.2-40.4L583.2-30.8L551.3-30.8L551.3-9.9L585.2-9.9L585.2 0ZM625.2 0L614.7 0L614.7-71L636.8-71Q648.1-71 654.5-65.3Q661-59.6 661-49.8L661-49.8Q661-44.7 658.8-40.8Q656.5-36.9 652.9-34.7L652.9-34.7Q651-33.6 649-32.9L649-32.9Q653.2-32.1 655.8-30.1L655.8-30.1Q659.4-27 660-20.2L660-20.2L661.8 0L651.3 0L649.7-18.2Q649.4-21.7 648.2-23.8Q647-25.9 644.5-26.8Q642-27.7 637.6-27.7L637.6-27.7L625.2-27.7L625.2 0ZM625.2-61.1L625.2-37.5L636.6-37.5Q643.2-37.5 646.7-40.6Q650.2-43.7 650.2-49.3L650.2-49.3Q650.2-55 646.7-58.1Q643.2-61.1 636.6-61.1L636.6-61.1L625.2-61.1ZM709.6 0L692.3 0L692.3-71L709.6-71Q719-71 726.0-66.9Q732.9-62.7 736.6-54.8Q740.4-46.8 740.4-35.4L740.4-35.4Q740.4-24 736.6-16.1Q732.9-8.2 726.0-4.1Q719 0 709.6 0L709.6 0ZM702.8-61.1L702.8-9.9L709.3-9.9Q719-9.9 724.3-16.3Q729.5-22.6 729.5-35.4L729.5-35.4Q729.5-48.2 724.3-54.7Q719-61.1 709.3-61.1L709.3-61.1L702.8-61.1ZM790.9 1.6L790.9 1.6Q783.2 1.6 777.5-1.5Q771.7-4.6 768.3-10.2Q764.9-15.7 764.3-23.1L764.3-23.1L775.1-23.8Q775.8-18.7 777.9-15.2Q780-11.7 783.4-10.0Q786.8-8.2 791.3-8.2L791.3-8.2Q795.7-8.2 798.7-9.3Q801.7-10.5 803.3-12.7Q804.9-14.9 804.9-18.1L804.9-18.1Q804.9-21.3 803.4-23.6Q801.9-25.9 798-27.9Q794.1-29.8 786.6-31.9L786.6-31.9Q779.3-33.9 774.7-36.5Q770.1-39 768-42.8Q765.9-46.5 765.9-52L765.9-52Q765.9-58.1 768.8-62.8Q771.6-67.4 777.0-70Q782.3-72.6 789.8-72.6L789.8-72.6Q797.2-72.6 802.5-69.7Q807.7-66.8 810.8-61.7Q813.8-56.5 814.5-49.6L814.5-49.6L803.7-49Q803.2-53.1 801.5-56.2Q799.7-59.3 796.7-61.1Q793.7-62.8 789.5-62.8L789.5-62.8Q783.6-62.8 780.1-60Q776.7-57.2 776.7-52.5L776.7-52.5Q776.7-49.5 778.1-47.5Q779.5-45.4 783-43.9Q786.5-42.3 792.8-40.5L792.8-40.5Q801.3-38.2 806.3-35.1Q811.3-32.1 813.5-28Q815.7-23.9 815.7-18.1L815.7-18.1Q815.7-12.3 812.6-7.8Q809.5-3.3 804.0-0.9Q798.4 1.6 790.9 1.6ZM866 1.6L866 1.6Q857.5 1.6 851.6-2.7Q845.8-7 842.7-15.3Q839.6-23.6 839.6-35.4L839.6-35.4Q839.6-47.4 842.7-55.7Q845.8-64 851.6-68.3Q857.5-72.6 866-72.6L866-72.6Q874.5-72.6 880.4-68.3Q886.3-64 889.4-55.7Q892.4-47.4 892.4-35.4L892.4-35.4Q892.4-23.6 889.4-15.3Q886.3-7 880.4-2.7Q874.5 1.6 866 1.6ZM866-8.2L866-8.2Q871-8.2 874.5-11.2Q877.9-14.2 879.7-20.3Q881.5-26.4 881.5-35.4L881.5-35.4Q881.5-44.4 879.7-50.6Q877.9-56.7 874.5-59.8Q871-62.8 866-62.8L866-62.8Q861-62.8 857.5-59.8Q854.1-56.7 852.3-50.6Q850.5-44.4 850.5-35.4L850.5-35.4Q850.5-26.4 852.3-20.3Q854.1-14.2 857.5-11.2Q861-8.2 866-8.2ZM932.3 0L921.8 0L921.8-71L966.2-71L966.2-61.3L932.3-61.3L932.3-39.5L964.4-39.5L964.4-29.9L932.3-29.9L932.3 0ZM1023.2 0L1012.8 0L1012.8-61.1L992-61.1L992-71L1044-71L1044-61.1L1023.2-61.1L1023.2 0Z"></path></g>
<g fill="#ECEEF1" transform="translate(72 232) scale(0.26)"><path d="M51-62L51-71L4-71L4-62L41-62L3-9L3 0L52 0L52-9L13-9ZM59-27C59-10 69 1 83 1C94 1 103-5 106-15L96-16C94-10 89-7 83-7C74-7 69-13 68-24L106-24L106-28C105-47 95-54 83-54C69-54 59-43 59-27ZM68-31C70-41 75-46 83-46C90-46 96-42 97-31ZM117-53L117 0L126 0L126-53ZM117-61L126-61L126-71L117-71ZM143-65L143-53L135-53L135-45L143-45L143-14C143-5 148 0 158 0L166 0L166-8L158-8C154-8 152-10 152-14L152-45L166-45L166-53L152-53L152-65ZM197 1C212 1 221-10 221-27C221-43 212-54 197-54C182-54 173-43 173-27C173-10 182 1 197 1ZM182-27C182-39 187-46 197-46C207-46 212-39 212-27C212-14 207-7 197-7C187-7 182-14 182-27ZM233 15L242 15L242-7C245-2 250 1 258 1C274 1 281-12 281-27C281-41 274-54 258-54C250-54 244-51 242-45L241-53L233-53ZM241-27C241-36 245-46 256-46C267-46 271-36 271-27C271-17 267-7 256-7C245-7 241-17 241-27ZM296-65L296-53L288-53L288-45L296-45L296-14C296-5 301 0 310 0L318 0L318-8L310-8C306-8 304-10 304-14L304-45L318-45L318-53L304-53L304-65ZM330-53L330 0L339 0L339-53ZM330-61L339-61L339-71L330-71ZM353-53L353 0L362 0L362-32C362-41 367-47 375-47C381-47 385-41 385-32L385 0L393 0L393-32C393-41 398-47 406-47C413-47 416-41 416-32L416 0L425 0L425-34C425-47 419-54 408-54C400-54 394-50 392-43C390-50 384-54 376-54C369-54 364-51 361-44L361-53ZM439-37L448-37C449-43 454-46 460-46C469-46 473-42 473-33L458-30C446-28 438-25 438-14C438-4 446 1 457 1C465 1 471-3 473-8C473-2 478 0 483 0L487 0L487-8L485-8C483-8 482-9 482-11L482-32C482-46 474-54 460-54C449-54 441-48 439-37ZM447-14C447-21 453-22 461-23L473-25L473-25C473-12 466-6 458-6C450-6 447-10 447-14ZM499-71L499-10C499-4 503 0 509 0L515 0L515-8L510-8C508-8 507-9 507-11L507-71ZM523-27C523-10 532 1 547 1C557 1 566-5 569-15L560-16C558-10 553-7 547-7C538-7 533-13 532-24L570-24L570-28C569-47 559-54 547-54C532-54 523-43 523-27ZM532-31C533-41 539-46 547-46C553-46 559-42 561-31ZM655-71L602-71L602-62L624-62L624 0L633 0L633-62L655-62ZM687 1C701 1 711-10 711-27C711-43 701-54 687-54C672-54 662-43 662-27C662-10 672 1 687 1ZM671-27C671-39 677-46 687-46C696-46 702-39 702-27C702-14 696-7 687-7C677-7 671-14 671-27ZM675-61L684-61L684-71L675-71ZM689-61L698-61L698-71L689-71ZM724-53L724 0L732 0L732-32C732-41 736-45 744-45L749-45L749-53L744-53C737-53 733-50 731-44L731-53ZM759-53L759 0L767 0L767-32C767-41 773-47 781-47C789-47 792-41 792-32L792 0L801 0L801-34C801-45 795-54 783-54C776-54 770-51 767-44L767-53ZM815 15L824 15L824-7C827-2 832 1 839 1C855 1 862-12 862-27C862-41 855-54 839-54C832-54 826-51 823-45L823-53L815-53ZM823-27C823-36 827-46 838-46C849-46 853-36 853-27C853-17 849-7 838-7C827-7 823-17 823-27ZM875-71L875-10C875-4 879 0 885 0L891 0L891-8L887-8C885-8 884-9 884-11L884-71ZM901-37L910-37C912-43 916-46 923-46C931-46 935-42 935-33L920-30C908-28 900-25 900-14C900-4 909 1 919 1C928 1 933-3 936-8C936-2 940 0 946 0L949 0L949-8L947-8C945-8 944-9 944-11L944-32C944-46 936-54 923-54C911-54 903-48 901-37ZM909-14C909-21 915-22 923-23L936-25L936-25C936-12 929-6 920-6C913-6 909-10 909-14ZM960-53L960 0L969 0L969-32C969-41 974-47 983-47C991-47 994-41 994-32L994 0L1002 0L1002-34C1002-45 997-54 984-54C977-54 971-51 968-44L968-53ZM1058 0L1058-53L1050-53L1050-21C1050-12 1044-6 1036-6C1029-6 1025-12 1025-21L1025-53L1017-53L1017-19C1017-8 1023 1 1034 1C1041 1 1047-2 1050-9L1050 0ZM1074-53L1074 0L1083 0L1083-32C1083-41 1089-47 1097-47C1105-47 1108-41 1108-32L1108 0L1117 0L1117-34C1117-45 1111-54 1099-54C1091-54 1085-51 1083-44L1082-53ZM1151-3C1158-3 1164-6 1166-12L1166-3C1166 4 1161 8 1151 8C1145 8 1140 5 1138 0L1129 1C1132 10 1140 16 1151 16C1165 16 1175 9 1175-5L1175-53L1167-53L1167-45C1164-51 1158-54 1151-54C1137-54 1128-44 1128-29C1128-13 1138-3 1151-3ZM1137-29C1137-39 1143-46 1152-46C1161-46 1167-39 1166-29C1166-18 1161-11 1152-11C1143-11 1137-18 1137-29ZM1213-33L1213-25L1295-25L1295-33ZM1353 1C1368 1 1378-10 1378-27C1378-43 1368-54 1353-54C1339-54 1329-43 1329-27C1329-10 1339 1 1353 1ZM1338-27C1338-39 1344-46 1353-46C1363-46 1369-39 1369-27C1369-14 1363-7 1353-7C1344-7 1338-14 1338-27ZM1393-56L1393-53L1386-53L1386-45L1393-45L1393 0L1402 0L1402-45L1415-45L1415-53L1402-53L1402-56C1402-61 1404-63 1408-63L1416-63L1416-71L1408-71C1398-71 1393-65 1393-56ZM1433-56L1433-53L1426-53L1426-45L1433-45L1433 0L1442 0L1442-45L1455-45L1455-53L1442-53L1442-56C1442-61 1444-63 1448-63L1456-63L1456-71L1448-71C1438-71 1433-65 1433-56ZM1466-71L1466-10C1466-4 1470 0 1477 0L1483 0L1483-8L1478-8C1476-8 1475-9 1475-11L1475-71ZM1495-53L1495 0L1503 0L1503-53ZM1494-61L1503-61L1503-71L1494-71ZM1518-53L1518 0L1526 0L1526-32C1526-41 1532-47 1540-47C1548-47 1551-41 1551-32L1551 0L1560 0L1560-34C1560-45 1554-54 1542-54C1535-54 1528-51 1526-44L1525-53ZM1571-27C1571-10 1581 1 1595 1C1606 1 1615-5 1618-15L1608-16C1606-10 1601-7 1595-7C1586-7 1581-13 1580-24L1618-24L1618-28C1617-47 1607-54 1595-54C1581-54 1571-43 1571-27ZM1580-31C1582-41 1587-46 1595-46C1602-46 1608-42 1609-31ZM1654-37L1663-37C1664-43 1669-46 1675-46C1684-46 1688-42 1688-33L1673-30C1661-28 1653-25 1653-14C1653-4 1661 1 1672 1C1680 1 1686-3 1688-8C1688-2 1693 0 1699 0L1702 0L1702-8L1700-8C1698-8 1697-9 1697-11L1697-32C1697-46 1689-54 1675-54C1664-54 1656-48 1654-37ZM1662-14C1662-21 1668-22 1676-23L1688-25L1688-25C1688-12 1682-6 1673-6C1665-6 1662-10 1662-14ZM1713-53L1713 0L1722 0L1722-32C1722-41 1727-47 1735-47C1743-47 1747-41 1747-32L1747 0L1755 0L1755-34C1755-45 1749-54 1737-54C1730-54 1724-51 1721-44L1721-53ZM1797 0L1826 0C1841 0 1850-7 1850-20C1850-29 1844-35 1835-37C1842-38 1847-43 1847-51C1847-65 1839-71 1822-71L1797-71ZM1806-9L1806-32L1826-32C1835-32 1841-28 1841-20C1841-13 1835-9 1826-9ZM1806-40L1806-62L1822-62C1833-62 1838-59 1838-51C1838-44 1832-40 1822-40ZM1885 1C1900 1 1910-10 1910-27C1910-43 1900-54 1885-54C1871-54 1861-43 1861-27C1861-10 1871 1 1885 1ZM1870-27C1870-39 1876-46 1885-46C1895-46 1901-39 1901-27C1901-14 1895-7 1885-7C1876-7 1870-14 1870-27ZM1922-53L1922 0L1930 0L1930-32C1930-41 1934-45 1942-45L1947-45L1947-53L1942-53C1935-53 1931-50 1930-44L1929-53ZM2000-71L1991-71L1991-46C1988-51 1982-54 1975-54C1961-54 1953-44 1953-27C1953-10 1961 1 1975 1C1983 1 1989-2 1992-7L1992 0L2000 0ZM1962-27C1962-39 1968-46 1977-46C1986-46 1992-39 1992-27C1992-15 1986-7 1977-7C1968-7 1962-15 1962-27ZM2013-11L2013 0L2024 0L2024-11Z"></path></g>
<g fill="#969CA4" transform="translate(72 272) scale(0.26)"><path d="M55-71L3-71L3-62L25-62L25 0L33 0L33-62L55-62ZM66-53L66 0L74 0L74-53ZM66-61L75-61L75-71L66-71ZM89-53L89 0L98 0L98-32C98-41 102-47 110-47C117-47 121-41 121-32L121 0L129 0L129-32C129-41 134-47 142-47C148-47 152-41 152-32L152 0L161 0L161-34C161-47 155-54 144-54C136-54 130-50 128-43C125-50 120-54 112-54C105-54 100-51 97-44L97-53ZM172-27C172-10 182 1 196 1C206 1 215-5 219-15L209-16C207-10 202-7 196-7C187-7 182-13 181-24L219-24L219-28C218-47 208-54 196-54C182-54 172-43 172-27ZM181-31C183-41 188-46 196-46C203-46 208-42 210-31ZM229-33L229-25L262-25L262-33ZM296 1C310 1 320-10 320-27C320-43 310-54 296-54C281-54 271-43 271-27C271-10 281 1 296 1ZM280-27C280-39 286-46 296-46C305-46 311-39 311-27C311-14 305-7 296-7C286-7 280-14 280-27ZM332 15L341 15L341-7C344-2 349 1 356 1C372 1 379-12 379-27C379-41 372-54 356-54C349-54 343-51 340-45L340-53L332-53ZM340-27C340-36 344-46 355-46C366-46 370-36 370-27C370-17 366-7 355-7C344-7 340-17 340-27ZM394-65L394-53L387-53L387-45L394-45L394-14C394-5 400 0 409 0L417 0L417-8L409-8C405-8 403-10 403-14L403-45L417-45L417-53L403-53L403-65ZM429-53L429 0L437 0L437-53ZM429-61L438-61L438-71L429-71ZM452-53L452 0L460 0L460-32C460-41 465-47 473-47C480-47 483-41 483-32L483 0L492 0L492-32C492-41 497-47 505-47C511-47 515-41 515-32L515 0L524 0L524-34C524-47 517-54 507-54C498-54 493-50 491-43C488-50 483-54 475-54C468-54 462-51 460-44L460-53ZM537-37L546-37C548-43 552-46 559-46C567-46 572-42 572-33L556-30C545-28 536-25 536-14C536-4 545 1 555 1C564 1 570-3 572-8C572-2 577 0 582 0L586 0L586-8L584-8C581-8 580-9 580-11L580-32C580-46 573-54 559-54C548-54 539-48 537-37ZM545-14C545-21 552-22 560-23L572-25L572-25C572-12 565-6 557-6C549-6 545-10 545-14ZM597-71L597-10C597-4 601 0 608 0L614 0L614-8L609-8C607-8 606-9 606-11L606-71ZM651 15L659 15L659-7C662-2 668 1 675 1C691 1 698-12 698-27C698-41 691-54 675-54C667-54 662-51 659-45L658-53L651-53ZM658-27C658-36 663-46 673-46C684-46 689-36 689-27C689-17 684-7 673-7C663-7 658-17 658-27ZM709-37L718-37C719-43 724-46 730-46C739-46 743-42 743-33L728-30C716-28 708-25 708-14C708-4 716 1 727 1C735 1 741-3 743-8C743-2 748 0 753 0L757 0L757-8L755-8C753-8 752-9 752-11L752-32C752-46 744-54 730-54C719-54 711-48 709-37ZM717-14C717-21 723-22 731-23L743-25L743-25C743-12 737-6 728-6C720-6 717-10 717-14ZM798-37L807-37C805-48 797-54 786-54C774-54 766-48 766-38C766-27 776-25 786-22C792-21 799-20 799-14C799-9 792-7 787-7C779-7 774-11 773-17L764-17C765-6 775 1 787 1C797 1 808-3 808-14C808-24 799-27 787-30C782-31 775-33 775-38C775-43 779-46 785-46C791-46 797-43 798-37ZM851-37L860-37C858-48 850-54 839-54C827-54 819-48 819-38C819-27 829-25 839-22C845-21 852-20 852-14C852-9 845-7 840-7C833-7 828-11 826-17L817-17C818-6 828 1 840 1C850 1 861-3 861-14C861-24 852-27 840-30C835-31 828-33 828-38C828-43 832-46 838-46C844-46 850-43 851-37ZM872-37L881-37C883-43 887-46 894-46C902-46 906-42 906-33L891-30C879-28 871-25 871-14C871-4 880 1 890 1C899 1 904-3 907-8C907-2 911 0 917 0L920 0L920-8L918-8C916-8 915-9 915-11L915-32C915-46 907-54 894-54C882-54 874-48 872-37ZM880-14C880-21 886-22 894-23L907-25L907-25C907-12 900-6 891-6C884-6 880-10 880-14ZM951-3C958-3 964-6 966-12L966-3C966 4 961 8 951 8C945 8 940 5 938 0L929 1C932 10 940 16 951 16C965 16 975 9 975-5L975-53L967-53L967-45C964-51 958-54 951-54C937-54 928-44 928-29C928-13 937-3 951-3ZM937-29C937-39 942-46 952-46C961-46 966-39 966-29C966-18 960-11 952-11C942-11 937-18 937-29ZM987-27C987-10 997 1 1012 1C1022 1 1031-5 1034-15L1025-16C1022-10 1017-7 1012-7C1003-7 997-13 997-24L1035-24L1035-28C1034-47 1023-54 1012-54C997-54 987-43 987-27ZM997-31C998-41 1003-46 1012-46C1018-46 1024-42 1025-31ZM1073 15L1081 15L1081-7C1084-2 1090 1 1097 1C1113 1 1120-12 1120-27C1120-41 1113-54 1097-54C1089-54 1084-51 1081-45L1080-53L1073-53ZM1080-27C1080-36 1085-46 1095-46C1106-46 1111-36 1111-27C1111-17 1106-7 1095-7C1085-7 1080-17 1080-27ZM1132-71L1132-10C1132-4 1137 0 1143 0L1149 0L1149-8L1144-8C1142-8 1141-9 1141-11L1141-71ZM1158-37L1168-37C1169-43 1174-46 1180-46C1189-46 1193-42 1193-33L1178-30C1166-28 1158-25 1158-14C1158-4 1166 1 1177 1C1185 1 1191-3 1193-8C1193-2 1198 0 1203 0L1207 0L1207-8L1205-8C1203-8 1202-9 1202-11L1202-32C1202-46 1194-54 1180-54C1169-54 1161-48 1158-37ZM1167-14C1167-21 1173-22 1181-23L1193-25L1193-25C1193-12 1186-6 1178-6C1170-6 1167-10 1167-14ZM1218-53L1218 0L1226 0L1226-32C1226-41 1232-47 1240-47C1248-47 1251-41 1251-32L1251 0L1260 0L1260-34C1260-45 1254-54 1242-54C1235-54 1228-51 1226-44L1225-53ZM1274-53L1274 0L1282 0L1282-32C1282-41 1288-47 1296-47C1304-47 1307-41 1307-32L1307 0L1316 0L1316-34C1316-45 1310-54 1298-54C1291-54 1285-51 1282-44L1282-53ZM1332-53L1332 0L1341 0L1341-53ZM1332-61L1341-61L1341-71L1332-71ZM1355-53L1355 0L1364 0L1364-32C1364-41 1369-47 1378-47C1386-47 1389-41 1389-32L1389 0L1397 0L1397-34C1397-45 1392-54 1379-54C1372-54 1366-51 1363-44L1363-53ZM1432-3C1439-3 1444-6 1447-12L1447-3C1447 4 1441 8 1432 8C1426 8 1421 5 1419 0L1410 1C1412 10 1421 16 1432 16C1446 16 1456 9 1456-5L1456-53L1447-53L1447-45C1445-51 1439-54 1432-54C1418-54 1409-44 1409-29C1409-13 1418-3 1432-3ZM1418-29C1418-39 1423-46 1432-46C1442-46 1447-39 1447-29C1447-18 1441-11 1432-11C1423-11 1418-18 1418-29ZM1493-33L1493-25L1575-25L1575-33ZM1634 1C1649 1 1658-10 1658-27C1658-43 1649-54 1634-54C1619-54 1610-43 1610-27C1610-10 1619 1 1634 1ZM1619-27C1619-39 1624-46 1634-46C1644-46 1649-39 1649-27C1649-14 1644-7 1634-7C1624-7 1619-14 1619-27ZM1674-56L1674-53L1667-53L1667-45L1674-45L1674 0L1683 0L1683-45L1696-45L1696-53L1683-53L1683-56C1683-61 1685-63 1689-63L1697-63L1697-71L1689-71C1679-71 1674-65 1674-56ZM1714-56L1714-53L1707-53L1707-45L1714-45L1714 0L1723 0L1723-45L1736-45L1736-53L1723-53L1723-56C1723-61 1725-63 1728-63L1737-63L1737-71L1728-71C1719-71 1714-65 1714-56ZM1747-71L1747-10C1747-4 1751 0 1757 0L1763 0L1763-8L1759-8C1756-8 1755-9 1755-11L1755-71ZM1775-53L1775 0L1784 0L1784-53ZM1775-61L1784-61L1784-71L1775-71ZM1798-53L1798 0L1807 0L1807-32C1807-41 1812-47 1821-47C1829-47 1832-41 1832-32L1832 0L1841 0L1841-34C1841-45 1835-54 1823-54C1815-54 1809-51 1806-44L1806-53ZM1852-27C1852-10 1861 1 1876 1C1886 1 1895-5 1898-15L1889-16C1887-10 1882-7 1876-7C1867-7 1862-13 1861-24L1899-24L1899-28C1898-47 1888-54 1876-54C1861-54 1852-43 1852-27ZM1861-31C1862-41 1868-46 1876-46C1882-46 1888-42 1890-31ZM1919 0L1919-11L1909-11L1909 0L1913 0L1909 16L1914 16ZM1978 1C1993 1 2002-10 2002-27C2002-43 1993-54 1978-54C1963-54 1954-43 1954-27C1954-10 1963 1 1978 1ZM1963-27C1963-39 1968-46 1978-46C1988-46 1993-39 1993-27C1993-14 1988-7 1978-7C1968-7 1963-14 1963-27ZM2015-53L2015 0L2023 0L2023-32C2023-41 2029-47 2037-47C2045-47 2048-41 2048-32L2048 0L2057 0L2057-34C2057-45 2051-54 2039-54C2032-54 2025-51 2023-44L2022-53ZM2098-71L2098 0L2106 0L2106-7C2109-2 2115 1 2123 1C2136 1 2145-10 2145-27C2145-44 2136-54 2123-54C2116-54 2109-51 2106-46L2106-71ZM2106-27C2106-39 2112-46 2121-46C2130-46 2136-39 2136-27C2136-15 2130-7 2121-7C2112-7 2106-15 2106-27ZM2179 1C2193 1 2203-10 2203-27C2203-43 2193-54 2179-54C2164-54 2154-43 2154-27C2154-10 2164 1 2179 1ZM2163-27C2163-39 2169-46 2179-46C2188-46 2194-39 2194-27C2194-14 2188-7 2179-7C2169-7 2163-14 2163-27ZM2214-37L2223-37C2225-43 2229-46 2236-46C2244-46 2248-42 2248-33L2233-30C2221-28 2213-25 2213-14C2213-4 2222 1 2232 1C2240 1 2246-3 2248-8C2248-2 2253 0 2259 0L2262 0L2262-8L2260-8C2258-8 2257-9 2257-11L2257-32C2257-46 2249-54 2236-54C2224-54 2216-48 2214-37ZM2222-14C2222-21 2228-22 2236-23L2249-25L2249-25C2249-12 2242-6 2233-6C2225-6 2222-10 2222-14ZM2273-53L2273 0L2282 0L2282-32C2282-41 2285-45 2293-45L2299-45L2299-53L2293-53C2287-53 2283-50 2281-44L2281-53ZM2351-71L2343-71L2343-46C2340-51 2334-54 2326-54C2313-54 2304-44 2304-27C2304-10 2313 1 2326 1C2334 1 2340-2 2343-7L2343 0L2351 0ZM2313-27C2313-39 2319-46 2328-46C2338-46 2343-39 2343-27C2343-15 2338-7 2328-7C2319-7 2313-15 2313-27ZM2364-11L2364 0L2375 0L2375-11Z"></path></g>
</svg>
