<svg xmlns="http://www.w3.org/2000/svg" viewBox="0 0 280 64" fill="currentColor">
<g transform="translate(-26.25 -15.99) scale(0.97)"><path d="M50 22.59L69 55.5L31 55.5Z"></path><path d="M26.96 62.5L73.04 62.5L63.5 76L36.5 76Z"></path></g>
<rect x="62.86" y="13" width="1" height="38" opacity="0.18"></rect>
<g transform="translate(81.86 35.1) scale(0.3)"><path d="M18.6-23.9L5.4-23.1C6.5-8.3 18.3 1.2 35.1 1.2C49.6 1.2 61.5-6.1 61.5-19.5C61.5-30.7 51.3-37.4 36.5-41C28.7-43 20.4-45 20.2-52C20.1-57.6 25.1-61.3 32.2-61.3C40.4-61.3 46.1-56.2 47.1-48.4L60.3-49C58.7-63 48.2-72.6 32.4-72.6C17.1-72.6 6.8-64.7 6.8-52.1C6.8-40.6 16.9-34.6 31-31.2C43-28.1 48.1-24.8 48.1-18.9C48.2-13.2 43.1-10.2 35.6-10.2C25.9-10.2 20.2-15.6 18.6-23.9ZM69.4-36.9L82.6-36.1C83.9-41.9 87.5-44.9 93.1-44.9C100-44.9 103.4-41 103.5-33L88.6-30C76.2-27.5 68.6-24.2 68.6-13.9C68.6-4.5 77 1.2 87.6 1.2C96.8 1.2 102.8-2.8 105.2-8C106.2 0.2 114.7 0.1 118.8 0.1L121.8 0L121.8-9.4L119.8-9.4C117.8-9.4 116.5-10.2 116.5-13.3L116.5-31.4C116.5-46.3 108.4-54.2 93.1-54.2C80.1-54.2 71.5-47.8 69.4-36.9ZM81.9-14.3C81.9-20.4 87-21.1 93.7-22.4L103.7-24.2L103.7-23.6C103.7-13.1 98.3-7.9 91.1-7.9C84.9-7.9 81.9-10.7 81.9-14.3ZM129.4-53L129.4 0L142.4 0L142.4-53ZM129.2-60.4L142.6-60.4L142.6-71L129.2-71ZM153.9-71L153.9-13.3C153.9-4.9 159.3 0 167.2 0L174.7 0L174.7-10.1L170.6-10.1C168.2-10.1 166.9-11.4 166.9-13.9L166.9-71ZM243.8-24.8L230.0-25.5C228.3-15.5 222.3-9.9 213.4-9.9C199.8-9.9 193.6-21.2 193.6-35.4C193.6-49.7 199.7-61.1 213.4-61.1C221.9-61.1 227.8-56 229.7-46.8L243.4-47.5C240.3-63.1 229.6-72.6 213.6-72.6C192.7-72.6 180.1-56.3 180.1-35.4C180.1-14.6 192.8 1.6 213.6 1.6C230.4 1.6 241-8.4 243.8-24.8ZM275.6 1.2C291.4 1.2 301.8-9.7 301.8-26.5C301.8-43.3 291.4-54.2 275.6-54.2C259.8-54.2 249.4-43.3 249.4-26.5C249.4-9.7 259.8 1.2 275.6 1.2ZM262.7-26.5C262.7-37.4 267.4-43.7 275.6-43.7C283.8-43.7 288.5-37.4 288.5-26.5C288.5-15.6 283.8-9.3 275.6-9.3C267.4-9.3 262.7-15.6 262.7-26.5ZM309.7-53L309.7 0L322.7 0L322.7-30C322.7-38.7 326.3-43.7 333.1-43.7C338.6-43.7 341.4-38.9 341.4-30L341.4 0L353.2 0L353.2-30C353.2-38.9 356.8-43.7 363.6-43.7C369.2-43.7 372-39 372-30L372 0L385 0L385-34.1C385-47.2 378.3-54.2 367.5-54.2C359.9-54.2 354.4-50.5 351.8-43.3C349.5-50.2 344.1-54.2 336.6-54.2C329.6-54.2 324.3-50.7 321.7-44.5L321.4-53ZM394.8-53L394.8 0L407.8 0L407.8-30C407.8-38.7 411.4-43.7 418.2-43.7C423.7-43.7 426.5-38.9 426.5-30L426.5 0L438.3 0L438.3-30C438.3-38.9 441.9-43.7 448.7-43.7C454.3-43.7 457.1-39 457.1-30L457.1 0L470.1 0L470.1-34.1C470.1-47.2 463.4-54.2 452.6-54.2C445-54.2 439.5-50.5 436.9-43.3C434.6-50.2 429.2-54.2 421.7-54.2C414.7-54.2 409.4-50.7 406.8-44.5L406.5-53ZM479.6-36.9L492.8-36.1C494.1-41.9 497.7-44.9 503.3-44.9C510.2-44.9 513.6-41 513.7-33L498.8-30C486.4-27.5 478.8-24.2 478.8-13.9C478.8-4.5 487.2 1.2 497.8 1.2C507 1.2 513-2.8 515.4-8C516.4 0.2 524.9 0.1 529 0.1L532 0L532-9.4L530-9.4C528-9.4 526.7-10.2 526.7-13.3L526.7-31.4C526.7-46.3 518.6-54.2 503.3-54.2C490.3-54.2 481.7-47.8 479.6-36.9ZM492.1-14.3C492.1-20.4 497.2-21.1 503.9-22.4L513.9-24.2L513.9-23.6C513.9-13.1 508.5-7.9 501.3-7.9C495.1-7.9 492.1-10.7 492.1-14.3ZM539-53L539 0L552 0L552-30C552-38.8 556-43.7 563.1-43.7C569.9-43.7 572.2-38.8 572.2-30L572.2 0L585.1 0L585.1-34.1C585.1-46 578.7-54.2 567-54.2C559.9-54.2 553.9-51.4 551-44.4L550.7-53ZM643.6-71L630.6-71L630.6-45.9C627.6-51.1 621.6-54.2 614.8-54.2C601-54.2 592.4-43.5 592.4-26.5C592.4-9.5 601 1.2 614.8 1.2C622 1.2 628.1-2.1 631-7.5L631.3 0L643.6 0ZM605.7-26.5C605.7-37.3 610.7-44.1 618.6-44.1C626.4-44.1 631.5-37.3 631.5-26.5C631.5-16 626.5-9.2 618.6-9.2C610.8-9.2 605.7-16 605.7-26.5Z"></path></g>
<g transform="translate(81.86 50.2) scale(0.1)" opacity="0.55"><path d="M31.3 0L8.3 0L8.3-71L28.9-71Q40.6-71 46.7-65.9Q52.8-60.8 52.8-51.7L52.8-51.7Q52.8-47.3 50.8-43.9Q48.8-40.4 45-38.4L45-38.4Q42.6-37.1 39.7-36.6L39.7-36.6Q43.7-36.1 46.8-34.7L46.8-34.7Q51.2-32.5 53.5-28.7Q55.8-24.8 55.8-19.7L55.8-19.7Q55.8-10.3 49.4-5.2Q42.9 0 31.3 0L31.3 0ZM18.8-31.2L18.8-9.8L31.4-9.8Q38.3-9.8 41.6-12.6Q44.9-15.3 44.9-20.2L44.9-20.2Q44.9-25.4 41.5-28.3Q38-31.2 31.4-31.2L31.4-31.2L18.8-31.2ZM18.8-61.2L18.8-40.9L29.1-40.9Q35.7-40.9 38.8-43.6Q41.9-46.2 41.9-51L41.9-51Q41.9-55.9 38.8-58.6Q35.7-61.2 29.1-61.2L29.1-61.2L18.8-61.2ZM111.3 0L100.8 0L100.8-29.2L79.7-71L91.3-71L106-40L120.7-71L132.3-71L111.3-29.2L111.3 0ZM253.6 0L236.3 0L236.3-71L253.6-71Q263-71 269.9-66.9Q276.9-62.7 280.6-54.8Q284.4-46.8 284.4-35.4L284.4-35.4Q284.4-24 280.6-16.1Q276.9-8.2 269.9-4.1Q263 0 253.6 0L253.6 0ZM246.8-61.1L246.8-9.9L253.3-9.9Q263-9.9 268.3-16.3Q273.5-22.6 273.5-35.4L273.5-35.4Q273.5-48.2 268.3-54.7Q263-61.1 253.3-61.1L253.3-61.1L246.8-61.1ZM334 1.6L334 1.6Q325.5 1.6 319.6-2.7Q313.8-7 310.7-15.3Q307.6-23.6 307.6-35.4L307.6-35.4Q307.6-47.4 310.7-55.7Q313.8-64 319.6-68.3Q325.5-72.6 334-72.6L334-72.6Q342.5-72.6 348.4-68.3Q354.3-64 357.4-55.7Q360.4-47.4 360.4-35.4L360.4-35.4Q360.4-23.6 357.4-15.3Q354.3-7 348.4-2.7Q342.5 1.6 334 1.6ZM334-8.2L334-8.2Q339-8.2 342.4-11.2Q345.9-14.2 347.7-20.3Q349.5-26.4 349.5-35.4L349.5-35.4Q349.5-44.4 347.7-50.6Q345.9-56.7 342.4-59.8Q339-62.8 334-62.8L334-62.8Q329-62.8 325.6-59.8Q322.1-56.7 320.3-50.6Q318.5-44.4 318.5-35.4L318.5-35.4Q318.5-26.4 320.3-20.3Q322.1-14.2 325.6-11.2Q329-8.2 334-8.2ZM410.3 1.6L410.3 1.6Q401.7 1.6 395.8-2.9Q389.8-7.4 386.7-15.7Q383.6-24 383.6-35.4L383.6-35.4Q383.6-46.9 386.7-55.2Q389.8-63.5 395.8-68.0Q401.7-72.6 410.3-72.6L410.3-72.6Q420-72.6 426.6-66.2Q433.3-59.8 435.4-48.3L435.4-48.3L424.4-47.7Q422.9-55.1 419.1-59.0Q415.4-62.8 410.3-62.8L410.3-62.8Q405.1-62.8 401.6-59.6Q398.1-56.4 396.3-50.3Q394.5-44.2 394.5-35.4L394.5-35.4Q394.5-26.7 396.3-20.7Q398.1-14.6 401.6-11.4Q405.1-8.2 410.3-8.2L410.3-8.2Q415.8-8.2 419.7-12.4Q423.6-16.6 424.9-24.7L424.9-24.7L435.8-24.2Q434-12 427.3-5.2Q420.6 1.6 410.3 1.6ZM485.9 1.6L485.9 1.6Q478.2 1.6 472.3-2.6Q466.4-6.8 463-15.1Q459.6-23.3 459.6-35.4L459.6-35.4Q459.6-46.9 462.8-55.2Q466-63.5 471.9-68.0Q477.9-72.6 486.2-72.6L486.2-72.6Q492.9-72.6 498-69.7Q503.1-66.8 506.6-61.5Q510-56.2 511.5-49.1L511.5-49.1L500.6-48.4Q499.1-54.9 495.6-58.8Q492-62.7 486.3-62.7L486.3-62.7Q481.3-62.7 477.8-59.6Q474.2-56.4 472.4-50.3Q470.5-44.2 470.5-35.4L470.5-35.4Q470.5-26.7 472.4-20.7Q474.3-14.6 477.9-11.5Q481.6-8.3 486.8-8.3L486.8-8.3Q491.4-8.3 494.7-10.7Q498-13 499.9-17.3Q501.7-21.5 501.9-27.1L501.9-27.1L486.3-27.1L486.3-36.2L511.6-36.2L511.6 0L503.1 0L502.8-9.2Q502.3-8.2 501.8-7.2L501.8-7.2Q499.3-3.1 495.4-0.8Q491.5 1.6 485.9 1.6ZM585.2 0L540.8 0L540.8-71L584.4-71L584.4-61.1L551.3-61.1L551.3-40.4L583.2-40.4L583.2-30.8L551.3-30.8L551.3-9.9L585.2-9.9L585.2 0ZM625.2 0L614.7 0L614.7-71L636.8-71Q648.1-71 654.5-65.3Q661-59.6 661-49.8L661-49.8Q661-44.7 658.8-40.8Q656.5-36.9 652.9-34.7L652.9-34.7Q651-33.6 649-32.9L649-32.9Q653.2-32.1 655.8-30.1L655.8-30.1Q659.4-27 660-20.2L660-20.2L661.8 0L651.3 0L649.7-18.2Q649.4-21.7 648.2-23.8Q647-25.9 644.5-26.8Q642-27.7 637.6-27.7L637.6-27.7L625.2-27.7L625.2 0ZM625.2-61.1L625.2-37.5L636.6-37.5Q643.2-37.5 646.7-40.6Q650.2-43.7 650.2-49.3L650.2-49.3Q650.2-55 646.7-58.1Q643.2-61.1 636.6-61.1L636.6-61.1L625.2-61.1ZM709.6 0L692.3 0L692.3-71L709.6-71Q719-71 726.0-66.9Q732.9-62.7 736.6-54.8Q740.4-46.8 740.4-35.4L740.4-35.4Q740.4-24 736.6-16.1Q732.9-8.2 726.0-4.1Q719 0 709.6 0L709.6 0ZM702.8-61.1L702.8-9.9L709.3-9.9Q719-9.9 724.3-16.3Q729.5-22.6 729.5-35.4L729.5-35.4Q729.5-48.2 724.3-54.7Q719-61.1 709.3-61.1L709.3-61.1L702.8-61.1ZM790.9 1.6L790.9 1.6Q783.2 1.6 777.5-1.5Q771.7-4.6 768.3-10.2Q764.9-15.7 764.3-23.1L764.3-23.1L775.1-23.8Q775.8-18.7 777.9-15.2Q780-11.7 783.4-10.0Q786.8-8.2 791.3-8.2L791.3-8.2Q795.7-8.2 798.7-9.3Q801.7-10.5 803.3-12.7Q804.9-14.9 804.9-18.1L804.9-18.1Q804.9-21.3 803.4-23.6Q801.9-25.9 798-27.9Q794.1-29.8 786.6-31.9L786.6-31.9Q779.3-33.9 774.7-36.5Q770.1-39 768-42.8Q765.9-46.5 765.9-52L765.9-52Q765.9-58.1 768.8-62.8Q771.6-67.4 777.0-70Q782.3-72.6 789.8-72.6L789.8-72.6Q797.2-72.6 802.5-69.7Q807.7-66.8 810.8-61.7Q813.8-56.5 814.5-49.6L814.5-49.6L803.7-49Q803.2-53.1 801.5-56.2Q799.7-59.3 796.7-61.1Q793.7-62.8 789.5-62.8L789.5-62.8Q783.6-62.8 780.1-60Q776.7-57.2 776.7-52.5L776.7-52.5Q776.7-49.5 778.1-47.5Q779.5-45.4 783-43.9Q786.5-42.3 792.8-40.5L792.8-40.5Q801.3-38.2 806.3-35.1Q811.3-32.1 813.5-28Q815.7-23.9 815.7-18.1L815.7-18.1Q815.7-12.3 812.6-7.8Q809.5-3.3 804.0-0.9Q798.4 1.6 790.9 1.6ZM866 1.6L866 1.6Q857.5 1.6 851.6-2.7Q845.8-7 842.7-15.3Q839.6-23.6 839.6-35.4L839.6-35.4Q839.6-47.4 842.7-55.7Q845.8-64 851.6-68.3Q857.5-72.6 866-72.6L866-72.6Q874.5-72.6 880.4-68.3Q886.3-64 889.4-55.7Q892.4-47.4 892.4-35.4L892.4-35.4Q892.4-23.6 889.4-15.3Q886.3-7 880.4-2.7Q874.5 1.6 866 1.6ZM866-8.2L866-8.2Q871-8.2 874.5-11.2Q877.9-14.2 879.7-20.3Q881.5-26.4 881.5-35.4L881.5-35.4Q881.5-44.4 879.7-50.6Q877.9-56.7 874.5-59.8Q871-62.8 866-62.8L866-62.8Q861-62.8 857.5-59.8Q854.1-56.7 852.3-50.6Q850.5-44.4 850.5-35.4L850.5-35.4Q850.5-26.4 852.3-20.3Q854.1-14.2 857.5-11.2Q861-8.2 866-8.2ZM932.3 0L921.8 0L921.8-71L966.2-71L966.2-61.3L932.3-61.3L932.3-39.5L964.4-39.5L964.4-29.9L932.3-29.9L932.3 0ZM1023.2 0L1012.8 0L1012.8-61.1L992-61.1L992-71L1044-71L1044-61.1L1023.2-61.1L1023.2 0Z"></path></g>
</svg>
